<?xml version="1.0" encoding="UTF-8" standalone="no"?>
<!DOCTYPE svg PUBLIC "-//W3C//DTD SVG 1.1//EN" "http://www.w3.org/Graphics/SVG/1.1/DTD/svg11.dtd">
<svg width="100%" height="100%" viewBox="0 0 300 300" version="1.1" xmlns="http://www.w3.org/2000/svg" xmlns:xlink="http://www.w3.org/1999/xlink" xml:space="preserve" xmlns:serif="http://www.serif.com/" style="fill-rule:evenodd;clip-rule:evenodd;stroke-linejoin:round;stroke-miterlimit:2;">
    <g transform="matrix(4.16667,0,0,4.16667,0,0)">
        <path d="M32.321,65.158C32.321,68.937 29.258,72 25.479,72C21.7,72 18.636,68.937 18.636,65.158C18.636,61.378 21.7,58.315 25.479,58.315C29.258,58.315 32.321,61.378 32.321,65.158Z" style="fill:rgb(247,144,29);fill-rule:nonzero;"/>
        <path d="M64.821,4.072C64.209,2.712 63.242,1.659 61.921,0.908C60.593,0.162 59.195,-0.127 57.72,0.052C56.239,0.224 54.966,1.249 53.905,3.133C53.705,3.479 53.197,4.543 52.374,6.331C51.544,8.114 50.494,10.371 49.222,13.102C47.955,15.828 46.512,18.9 44.907,22.311C43.293,25.722 41.631,29.311 39.917,33.072C38.194,36.835 36.461,40.631 34.706,44.467C32.985,48.228 31.345,51.795 29.798,55.166C30.54,55.485 31.241,55.895 31.908,56.389C35.09,51.724 38.495,46.759 42.114,41.492C45.775,36.161 49.175,31.17 52.32,26.51C55.466,21.855 58.141,17.895 60.35,14.644C62.562,11.392 63.824,9.485 64.137,8.929C65.206,7.045 65.434,5.431 64.821,4.072Z" style="fill:rgb(247,144,29);fill-rule:nonzero;"/>
        <path d="M20.971,55.26C19.967,51.25 19.145,48.023 18.515,45.576C17.872,43.103 17.335,41.146 16.918,39.704C16.503,38.266 16.173,37.208 15.93,36.538C15.685,35.865 15.45,35.29 15.223,34.819C14.684,33.688 13.886,32.949 12.837,32.603C11.785,32.257 10.664,32.372 9.471,32.942C8.276,33.512 7.481,34.317 7.092,35.35C6.697,36.387 6.774,37.469 7.308,38.601C7.536,39.072 7.833,39.615 8.205,40.228C8.574,40.839 9.187,41.764 10.048,42.994C10.904,44.222 12.095,45.862 13.612,47.913C15.127,49.963 17.148,52.653 19.672,55.996C20.094,55.721 20.528,55.469 20.971,55.26Z" style="fill:rgb(247,144,29);fill-rule:nonzero;"/>
        <path d="M38.674,69.583C38.909,69.583 39.32,69.628 39.32,69.328C39.32,69.133 39.061,69.099 38.859,69.099L38.358,69.099L38.358,69.583L38.674,69.583ZM39.557,70.718L39.239,70.718L38.674,69.849L38.358,69.849L38.358,70.718L38.091,70.718L38.091,68.833L38.913,68.833C39.253,68.833 39.584,68.926 39.584,69.332C39.584,69.704 39.324,69.839 38.988,69.849L39.557,70.718ZM40.201,69.787C40.201,68.975 39.526,68.329 38.736,68.329C37.945,68.329 37.271,68.975 37.271,69.787C37.271,70.599 37.945,71.245 38.736,71.245C39.526,71.245 40.201,70.599 40.201,69.787ZM37.004,69.787C37.004,68.829 37.769,68.065 38.736,68.065C39.704,68.065 40.467,68.829 40.467,69.787C40.467,70.746 39.704,71.507 38.736,71.507C37.769,71.507 37.004,70.746 37.004,69.787Z" style="fill:rgb(247,144,29);fill-rule:nonzero;"/>
    </g>
</svg>
